<?xml version="1.0" standalone="no"?><!DOCTYPE svg PUBLIC "-//W3C//DTD SVG 1.1//EN" "http://www.w3.org/Graphics/SVG/1.1/DTD/svg11.dtd"><svg t="1697036611857" class="icon" viewBox="0 0 1024 1024" version="1.1" xmlns="http://www.w3.org/2000/svg" p-id="7802" xmlns:xlink="http://www.w3.org/1999/xlink" width="200" height="200"><path d="M409.57742 188.868691l421.405418 0 0 52.776783-421.405418 0 0-52.776783Z" fill="#0d56f9" p-id="7803"></path><path d="M409.57742 94.436671l421.405418 0 0 52.776782-421.405418 0 0-52.776782Z" fill="#0d56f9" p-id="7804"></path><path d="M415.037087 52.781433h459.420878a5.257457 5.257457 0 0 0 5.459667-4.853037V4.857688a5.257457 5.257457 0 0 0-5.459667-4.853037H415.037087a5.257457 5.257457 0 0 0-5.459667 4.853037v43.070708a5.257457 5.257457 0 0 0 5.459667 4.853037z" fill="#0d56f9" p-id="7805"></path><path d="M409.57742 782.354729l421.405418 0 0 52.776782-421.405418 0 0-52.776782Z" fill="#0d56f9" p-id="7806"></path><path d="M409.57742 876.786749l421.405418 0 0 52.776782-421.405418 0 0-52.776782Z" fill="#0d56f9" p-id="7807"></path><path d="M415.037087 971.218769h459.420878a5.257457 5.257457 0 0 1 5.459667 4.853038v43.070707a5.257457 5.257457 0 0 1-5.459667 4.853037H415.037087a5.257457 5.257457 0 0 1-5.459667-4.853037v-43.070707a5.257457 5.257457 0 0 1 5.459667-4.853038zM144.075829 675.183485l51.563523 51.563523V298.668663L144.075829 350.232186v324.951299zM234.665862 765.773517l51.563522 51.563523V208.078631l-51.563522 51.765733v505.929153zM376.819417 123.150476a4.853037 4.853037 0 0 0-1.819889-3.639778L325.255894 169.254332v687.513637l39.430929 39.43093 8.897235 8.897235a4.853037 4.853037 0 0 0 3.235359-4.448618v-50.148053z" fill="#0d56f9" p-id="7808"></path></svg>